<svg width="102" height="82" viewBox="0 0 102 82" fill="none" xmlns="http://www.w3.org/2000/svg">
<path d="M86.1862 11.4688C76.6571 4.07316 64.007 0 50.5688 0C49.3441 0 48.1253 0.0335805 46.9144 0.100742C34.849 0.770383 23.6113 4.74675 14.9514 11.4688C5.30972 18.9514 0 28.9348 0 39.5799C0 49.1821 4.40304 58.3773 12.4229 65.5794C10.0624 71.0729 7.04012 75.6122 3.43117 79.0829C3.00055 79.4977 2.8603 80.1298 3.07561 80.6868C3.2929 81.2439 3.82229 81.6172 4.41884 81.633C4.46032 81.633 4.57885 81.635 4.77045 81.635C6.86234 81.635 17.5766 81.3367 29.4366 75.5529C34.9754 77.55 40.8363 78.7234 46.9124 79.0592C48.1233 79.1263 49.3421 79.1599 50.5688 79.1599C64.007 79.1599 76.6571 75.0848 86.1862 67.6891C95.8278 60.2065 101.138 50.2231 101.138 39.5799C101.138 28.9348 95.8278 18.9514 86.1862 11.4688Z" fill="#FFD140"/>
<path d="M78.6819 40.8173C78.6819 44.9023 75.3635 48.2248 71.2837 48.2248C70.4194 48.2248 69.589 48.0767 68.8176 47.8021C65.9471 46.7828 63.8854 44.0371 63.8854 40.8173C63.8854 37.5975 65.9471 34.8518 68.8176 33.8325C69.589 33.5579 70.4196 33.4098 71.2837 33.4098C75.3635 33.4098 78.6819 36.7323 78.6819 40.8173Z" fill="white"/>
<path d="M78.6819 40.8173C78.6819 44.9023 75.3635 48.2248 71.2836 48.2248C70.4194 48.2248 69.589 48.0767 68.8176 47.8021C71.6882 46.7828 73.7499 44.0371 73.7499 40.8173C73.7499 37.5975 71.6882 34.8517 68.8176 33.8325C69.589 33.5579 70.4196 33.4097 71.2836 33.4097C75.3635 33.4097 78.6819 36.7323 78.6819 40.8173Z" fill="#455A64"/>
<path d="M101.138 39.5799C101.138 50.2231 95.8278 60.2065 86.1862 67.6891C76.6571 75.0848 64.007 79.1599 50.5688 79.1599C49.3421 79.1599 48.1233 79.1263 46.9124 79.0592C58.9778 78.3895 70.2175 74.4112 78.8774 67.6891C88.5191 60.2065 93.8288 50.2231 93.8288 39.5799C93.8288 28.9348 88.5191 18.9514 78.8774 11.4688C70.2175 4.74675 58.9798 0.770383 46.9144 0.100742C48.1253 0.0335805 49.3441 0 50.5688 0C64.007 0 76.6571 4.07316 86.1862 11.4688C95.8278 18.9514 101.138 28.9348 101.138 39.5799Z" fill="#455A64"/>
</svg>
