<svg width="45" height="45" viewBox="0 0 45 45" fill="none" xmlns="http://www.w3.org/2000/svg">
<path d="M22.5009 0C10.0782 0 0 10.065 0 22.4882C0 34.9232 10.0782 45 22.5008 45C34.9304 45 45 34.9231 45 22.4882C45.0001 10.065 34.9304 0 22.5009 0ZM24.1044 35.0078C23.5818 35.4728 22.9761 35.7066 22.29 35.7066C21.5802 35.7066 20.961 35.477 20.4325 35.0171C19.9031 34.558 19.6379 33.9151 19.6379 33.0892C19.6379 32.3566 19.8945 31.7399 20.4062 31.2402C20.9178 30.7404 21.5455 30.4905 22.29 30.4905C23.0227 30.4905 23.6394 30.7404 24.14 31.2402C24.6398 31.7399 24.8905 32.3565 24.8905 33.0892C24.8895 33.9033 24.6278 34.5428 24.1044 35.0078ZM30.6206 18.8536C30.2191 19.5981 29.7423 20.2401 29.1892 20.7815C28.6377 21.3227 27.6459 22.2324 26.2143 23.5113C25.8196 23.8722 25.502 24.189 25.264 24.4616C25.0259 24.7353 24.8481 24.9851 24.732 25.2121C24.6151 25.4391 24.5253 25.6661 24.4618 25.8931C24.3982 26.1192 24.3026 26.5182 24.1729 27.0882C23.9527 28.2977 23.2607 28.9024 22.0977 28.9024C21.4929 28.9024 20.9846 28.705 20.5704 28.3095C20.1579 27.914 19.9521 27.327 19.9521 26.5478C19.9521 25.5712 20.1037 24.725 20.4061 24.0093C20.7068 23.2935 21.1092 22.6659 21.6089 22.1247C22.1095 21.5835 22.7838 20.9414 23.6333 20.1969C24.3779 19.5455 24.9158 19.0543 25.247 18.7231C25.579 18.3911 25.8577 18.0218 26.0838 17.6152C26.3117 17.2078 26.4236 16.7665 26.4236 16.2896C26.4236 15.3588 26.0788 14.5745 25.386 13.935C24.6939 13.2955 23.8011 12.9753 22.7076 12.9753C21.4277 12.9753 20.4858 13.298 19.881 13.9434C19.2762 14.5889 18.7655 15.5392 18.3462 16.7953C17.9498 18.1099 17.1993 18.7671 16.0955 18.7671C15.4441 18.7671 14.8944 18.5376 14.4464 18.0785C13.9991 17.6194 13.7755 17.1222 13.7755 16.5869C13.7755 15.4824 14.1304 14.3626 14.8394 13.2285C15.5493 12.0944 16.5843 11.155 17.9455 10.4113C19.3058 9.66679 20.8941 9.29406 22.7076 9.29406C24.394 9.29406 25.8823 9.60572 27.1732 10.2283C28.4641 10.85 29.4619 11.6962 30.1658 12.7668C30.8689 13.8365 31.2212 14.9995 31.2212 16.2557C31.2229 17.2426 31.0222 18.1091 30.6206 18.8536Z" fill="#00A57D"/>
</svg>
