<svg width="26" height="26" viewBox="0 0 26 26" fill="none" xmlns="http://www.w3.org/2000/svg">
<path d="M13 25C19.6274 25 25 19.6274 25 13C25 6.37258 19.6274 1 13 1C6.37258 1 1 6.37258 1 13C1 19.6274 6.37258 25 13 25Z" stroke="#253A44" stroke-width="2" stroke-linecap="round" stroke-linejoin="round"/>
<path d="M12.0227 15.5795V15.4318C12.0265 14.7462 12.0909 14.2008 12.2159 13.7955C12.3447 13.3902 12.5265 13.0644 12.7614 12.8182C12.9962 12.5682 13.2822 12.339 13.6193 12.1307C13.8504 11.9867 14.0568 11.8295 14.2386 11.6591C14.4242 11.4848 14.5701 11.2917 14.6761 11.0795C14.7822 10.8636 14.8352 10.6231 14.8352 10.358C14.8352 10.0587 14.7652 9.79924 14.625 9.57955C14.4848 9.35985 14.2955 9.18939 14.0568 9.06818C13.822 8.94697 13.5587 8.88636 13.267 8.88636C12.9981 8.88636 12.7424 8.94508 12.5 9.0625C12.2614 9.17614 12.0625 9.35038 11.9034 9.58523C11.7481 9.81629 11.661 10.1098 11.642 10.4659H9.61932C9.63826 9.74621 9.8125 9.14394 10.142 8.65909C10.4754 8.17424 10.9148 7.81061 11.4602 7.56818C12.0095 7.32576 12.6155 7.20455 13.2784 7.20455C14.0019 7.20455 14.6383 7.33144 15.1875 7.58523C15.7405 7.83902 16.1705 8.20076 16.4773 8.67045C16.7879 9.13636 16.9432 9.68939 16.9432 10.3295C16.9432 10.7614 16.8731 11.1477 16.733 11.4886C16.5966 11.8295 16.4015 12.1326 16.1477 12.3977C15.8939 12.6629 15.5928 12.8996 15.2443 13.108C14.9375 13.2973 14.6856 13.4943 14.4886 13.6989C14.2955 13.9034 14.1515 14.1439 14.0568 14.4205C13.9659 14.6932 13.9186 15.0303 13.9148 15.4318V15.5795H12.0227ZM13.0114 19.125C12.6705 19.125 12.3769 19.0038 12.1307 18.7614C11.8845 18.5189 11.7614 18.2235 11.7614 17.875C11.7614 17.5341 11.8845 17.2424 12.1307 17C12.3769 16.7576 12.6705 16.6364 13.0114 16.6364C13.3485 16.6364 13.6402 16.7576 13.8864 17C14.1364 17.2424 14.2614 17.5341 14.2614 17.875C14.2614 18.1061 14.2027 18.3163 14.0852 18.5057C13.9716 18.6951 13.8201 18.8466 13.6307 18.9602C13.4451 19.0701 13.2386 19.125 13.0114 19.125Z" fill="#253A44"/>
</svg>
