<svg width="30" height="30" viewBox="0 0 30 30" fill="none" xmlns="http://www.w3.org/2000/svg">
<path d="M0.584167 29.6667V12.2762H11.7594L14.4876 15L10.9724 18.5095C10.7625 18.719 10.7625 19.0857 10.9724 19.2952C11.0773 19.4 11.2347 19.4524 11.3397 19.4524C11.4446 19.4524 11.602 19.4 11.7069 19.2952L15.2221 15.7857L17.9504 18.5095V29.6667H0.584167ZM29.965 17.7238H18.7898L16.0616 15L19.5768 11.4905C19.7867 11.2809 19.7867 10.9143 19.5768 10.7048C19.3669 10.4952 18.9997 10.4952 18.7898 10.7048L15.2746 14.2143L12.5464 11.4905V0.333328H29.965V17.7238Z" fill="white"/>
</svg>
