<svg xmlns="http://www.w3.org/2000/svg" width="137" height="136" fill="none" xmlns:v="https://vecta.io/nano"><path d="M0 42.049l.024 42.073 22.371 9.876 22.466 9.995c.048.071-4.046 6.973-9.091 15.349l-9.52 15.944-.381.714.809-.619 19.253-14.421 18.444-13.778 12.257-1.833 51.786-7.829c.048-.071 2.023-18.324 5.926-55.043l1.88-17.396c.095-.69.048-.762-.642-.881l-9.568-1.713-35.222-6.306-15.945-2.856-15.945-2.856-15.945-2.856-15.945-2.856-15.898-2.856L.214 0C.095 0 0 15.825 0 42.049z" fill="#ffd140"/><path d="M91.025 25.722c-1.037.261-1.794.817-2.751 2.004-1.719 2.145-3.207 6.228-4.028 11.058-.2 1.167-.436 2.926-.401 2.961.025.025 1.764.261 7.365.982 2.17.286 3.312.451 3.417.506.09.045.366.281.616.531.541.526.717.862.952 1.764.461 1.774.506 4.199.12 6.098-.125.621-.421 1.443-.631 1.754-.211.316-.807.907-1.027 1.017-.08.04-.401.095-.716.13l-2.731.336-4.159.521-3.222.426c-.01.005.045.461.115 1.007.386 3.001.972 5.662 1.714 7.837.356 1.037.982 2.591 1.213 2.996a5.84 5.84 0 0 1 .255.481c.025.065.19.356.366.646 1.107 1.809 2.094 2.711 3.417 3.132a3.71 3.71 0 0 0 1.704-.03c1.052-.326 2.119-1.263 3.046-2.666.666-1.012 1.578-2.976 2.089-4.51a42.46 42.46 0 0 0 1.423-5.737c.862-5.201 1.057-10.753.556-16.059-.21-2.21-.701-5.241-1.132-7.015-1.233-5.036-3.096-8.543-5.196-9.776-.742-.436-1.633-.586-2.375-.396zm-6.068 6.213a7.35 7.35 0 0 1-.446.661c-1.739 2.35-4.049 3.878-6.98 4.62-1.012.256-2.009.366-4.259.481l-7.015.576c-6.864.656-14.601 1.663-20.593 2.681-3.422.581-7.631 1.418-7.932 1.573-.361.19-.852.857-1.082 1.478-.631 1.678-.892 3.843-.732 6.093.12 1.664.396 2.861.907 3.908.426.887.742 1.157 1.523 1.323l3.983.802 2.626.481 1.313.241c.01.005-.015.15-.055.311-.371 1.618-1.283 6.048-1.809 8.794-1.127 5.912-1.669 9.56-2.109 14.205-.11 1.157-.12 2.921-.02 3.332a12.2 12.2 0 0 0 .461 1.388c.16.371.541.922.852 1.228.471.461.837.606 1.924.762l2.956.426c5.391.787 7.601.972 8.693.737 1.583-.341 2.916-1.273 3.427-2.395.316-.691.326-.867.185-3.147-.251-3.913-.286-10.537-.08-14.581l.306-4.835.381-4.164c.01-.005.626.05 1.368.13 4.875.521 8.794.872 10.673.952 2.54.11 3.633.276 5.286.812.476.155 1.603.661 1.984.892.18.11.341.2.351.2.055 0 .751.481 1.172.807a14.78 14.78 0 0 1 1.939 1.904c.356.436.862 1.183.997 1.463.05.1.105.185.13.185s-.005-.095-.065-.216a49.23 49.23 0 0 1-1.072-3.192c-.912-3.643-1.338-6.429-1.588-10.447-.08-1.323-.08-5.953 0-7.24.185-2.871.371-4.449.767-6.639.296-1.628.646-3.172 1.027-4.489.15-.521.691-2.099.772-2.25.03-.055.035-.1.015-.1s-.105.11-.18.251zM59.358 58.672l.261.03v.18c0 .105-.055.792-.125 1.538-.676 7.511-.832 14.927-.471 22.848.06 1.298.06 1.303-.05 1.558-.06.14-.205.346-.321.461-.236.225-1.052.737-1.077.666-.005-.02.04-.15.11-.286.331-.666.351-.907.231-3.502-.095-2.15-.105-9.926-.01-12.151.15-3.567.376-6.895.661-9.791l.15-1.568c0-.055.045-.07.19-.045.1.015.306.04.451.06zM93.6 44.271c-.276.15-.341.22-.551.611-.491.902-.727 1.949-.792 3.477-.095 2.175.471 4.454 1.228 4.956.621.411 1.223-.115 1.653-1.438.476-1.458.536-3.968.14-5.662-.205-.867-.656-1.729-1.002-1.914-.231-.12-.476-.13-.676-.03z" fill="#2e434d"/></svg>