<svg xmlns="http://www.w3.org/2000/svg" width="33" height="29" fill="#fff" xmlns:v="https://vecta.io/nano">
<path d="M9.793 16.369c.458-.525.085-1.345-.612-1.345H7.096l-.021-.624A9.44 9.44 0 0 1 16.5 4.974a9.39 9.39 0 0 1 6.459 2.568L25.9 4.101A13.84 13.84 0 0 0 16.5.455 13.85 13.85 0 0 0 6.64 4.54a13.85 13.85 0 0 0-4.084 9.86 14.26 14.26 0 0 0 .014.624H.813c-.697 0-1.07.82-.612 1.345l3.964 4.546.833.955 2.989-3.429 1.807-2.073zm23.006-2.653l-2.956-3.391-1.84-2.11-2.627 3.013-2.169 2.488c-.458.525-.085 1.345.612 1.345h2.083a9.44 9.44 0 0 1-9.402 8.764c-2.171 0-4.174-.738-5.769-1.977l-2.942 3.441c2.464 1.979 5.505 3.055 8.711 3.055a13.85 13.85 0 0 0 9.86-4.084 13.84 13.84 0 0 0 4.068-9.198h1.758c.697 0 1.07-.82.612-1.345z"/>
</svg>