<svg width="22" height="22" viewBox="0 0 22 22" fill="none" xmlns="http://www.w3.org/2000/svg">
<path fill-rule="evenodd" clip-rule="evenodd" d="M5.11864 13.7571C5.90152 15.0261 6.97364 16.0983 8.24292 16.8814L3.7713 21.353C2.90861 22.2157 1.50989 22.2157 0.647196 21.353C0.647281 21.353 0.647153 21.3529 0.647196 21.353C-0.215503 20.4903 -0.215675 19.0914 0.647024 18.2287L5.11864 13.7571ZM13.2389 0C18.0743 0 22 3.92572 22 8.76109C22 13.5965 18.0743 17.5221 13.2389 17.5221C8.40353 17.5221 4.47785 13.5965 4.47785 8.76109C4.47785 3.92572 8.40353 0 13.2389 0ZM13.2389 3.01315C10.0666 3.01315 7.491 5.5887 7.491 8.76109C7.491 11.9334 10.0666 14.509 13.2389 14.509C16.4113 14.509 18.9868 11.9334 18.9868 8.76109C18.9868 5.5887 16.4113 3.01315 13.2389 3.01315Z" fill="white"/>
</svg>
