<svg width="23" height="18" viewBox="0 0 23 18" fill="none" xmlns="http://www.w3.org/2000/svg">
<path d="M3.73688 13.7382C3.87567 13.5996 4.06649 13.5188 4.26889 13.5188H22.623C22.9584 13.5188 23.1261 13.923 22.889 14.1598L19.2633 17.7806C19.1245 17.9192 18.9336 18 18.7313 18H0.377174C0.0417816 18 -0.125915 17.5958 0.111173 17.359L3.73688 13.7382Z" fill="#1CE4B0"/>
<path d="M3.73675 0.219442C3.88131 0.0808469 4.07214 0 4.26875 0H22.6228C22.9582 0 23.1259 0.404235 22.8888 0.641001L19.2631 4.26179C19.1243 4.40038 18.9335 4.48123 18.7311 4.48123H0.377037C0.0416441 4.48123 -0.126052 4.07699 0.111036 3.84023L3.73675 0.219442Z" fill="#1CE4B0"/>
<path d="M19.2633 6.93551C19.1245 6.79692 18.9336 6.71607 18.7313 6.71607H0.377174C0.0417816 6.71607 -0.125915 7.12031 0.111173 7.35707L3.73688 10.9779C3.87567 11.1165 4.06649 11.1973 4.26889 11.1973H22.623C22.9584 11.1973 23.1261 10.7931 22.889 10.5563L19.2633 6.93551Z" fill="#1CE4B0"/>
</svg>
