<svg width="85" height="85" viewBox="0 0 85 85" fill="none" xmlns="http://www.w3.org/2000/svg">
<circle cx="42.5" cy="42.5" r="42.5" fill="#455A64"/>
<path d="M27.2305 52.7193C27.5177 52.4314 27.9126 52.2634 28.3315 52.2634H66.3152C67.0092 52.2634 67.3563 53.1033 66.8656 53.5952L59.3622 61.1184C59.075 61.4063 58.6801 61.5743 58.2613 61.5743H20.2776C19.5835 61.5743 19.2364 60.7344 19.7271 60.2425L27.2305 52.7193Z" fill="white"/>
<path d="M27.2286 24.6303C27.5278 24.3423 27.9227 24.1743 28.3296 24.1743H66.3133C67.0074 24.1743 67.3544 25.0142 66.8638 25.5062L59.3604 33.0293C59.0731 33.3173 58.6782 33.4852 58.2594 33.4852H20.2757C19.5816 33.4852 19.2346 32.6453 19.7252 32.1534L27.2286 24.6303Z" fill="white"/>
<path d="M59.3622 38.5844C59.075 38.2964 58.6801 38.1284 58.2613 38.1284H20.2776C19.5835 38.1284 19.2364 38.9683 19.7271 39.4603L27.2305 46.9834C27.5177 47.2714 27.9126 47.4393 28.3315 47.4393H66.3152C67.0092 47.4393 67.3563 46.5994 66.8656 46.1075L59.3622 38.5844Z" fill="white"/>
</svg>
