<svg width="24" height="24" viewBox="0 0 24 24" fill="none" xmlns="http://www.w3.org/2000/svg">
<path d="M12 1.26304L14.0757 6.07816L14.2681 6.52435L14.7196 6.34485L19.5922 4.40782L17.6551 9.2804L17.4757 9.73191L17.9218 9.92426L22.737 12L17.9218 14.0757L17.4757 14.2681L17.6551 14.7196L19.5922 19.5922L14.7196 17.6551L14.2681 17.4757L14.0757 17.9218L12 22.737L9.92426 17.9218L9.73191 17.4757L9.2804 17.6551L4.40782 19.5922L6.34485 14.7196L6.52435 14.2681L6.07816 14.0757L1.26304 12L6.07816 9.92426L6.52435 9.73191L6.34485 9.2804L4.40782 4.40782L9.2804 6.34485L9.73191 6.52435L9.92426 6.07816L12 1.26304Z" fill="#FFD140" stroke="white"/>
</svg>
