<svg width="32" height="26" viewBox="0 0 32 26" fill="none" xmlns="http://www.w3.org/2000/svg">
<path d="M1.03882 20.9033C2.34679 20.7436 3.67312 20.9156 4.98109 20.7007C5.63809 20.5963 6.23989 20.3753 6.83553 20.1419C5.36184 19.1963 4.03538 18.1156 2.80122 16.8199C2.35911 16.3593 2.67837 15.5856 3.32318 15.5673C3.8513 15.5918 4.36709 15.5489 4.87056 15.4444C3.5871 13.8172 2.59236 12.0671 1.81867 10.1021C1.60994 9.57402 2.22394 9.03987 2.72138 9.19944C3.00995 9.31612 3.30469 9.39597 3.60559 9.45733C2.6907 7.25898 2.50032 5.04227 3.00995 2.61054C3.12664 2.05174 3.86349 1.9167 4.23808 2.28512C7.17328 5.17102 10.8822 6.55884 14.849 7.222C14.4989 4.50786 16.4271 1.62183 18.9569 0.676116C21.0571 -0.103737 23.8756 0.430545 25.2879 2.19898C26.2337 1.60334 27.5415 1.4068 28.5916 1.22259C29.1442 1.13042 29.6785 1.67086 29.3531 2.21733C28.9723 2.85598 28.6101 3.5375 28.2109 4.18847C29.0215 3.94893 29.8567 3.80156 30.6917 3.69719C31.2935 3.61734 31.6558 4.54457 31.1953 4.91299C30.2189 5.69284 29.2487 6.58322 28.2109 7.29556C28.1803 14.1914 26.1661 19.9759 20.0072 23.8997C14.8735 27.1789 5.33102 26.6263 0.866931 22.1621H0.860768C0.664231 22.1129 0.559866 21.9655 0.523024 21.806C0.351137 21.5481 0.473856 21.2288 0.701073 21.106C0.787083 21.0015 0.89761 20.9216 1.03882 20.9033Z" fill="#455A64"/>
</svg>
