<svg width="34" height="26" viewBox="0 0 34 26" fill="none" xmlns="http://www.w3.org/2000/svg">
<path d="M28.6319 2.71826C26.5486 1.76274 24.3145 1.05876 21.9787 0.655561C21.9362 0.647779 21.8937 0.667226 21.8718 0.706121C21.5844 1.21693 21.2662 1.88331 21.0433 2.40709C18.531 2.03112 16.0315 2.03112 13.5707 2.40709C13.3478 1.87167 13.018 1.21693 12.7294 0.706121C12.7075 0.668524 12.665 0.649077 12.6225 0.655561C10.2879 1.05747 8.05388 1.76146 5.96927 2.71826C5.95123 2.72604 5.93576 2.73902 5.92549 2.75586C1.68799 9.08398 0.52716 15.2566 1.09662 21.3526C1.0992 21.3824 1.11595 21.411 1.13914 21.4291C3.93492 23.4814 6.64312 24.7273 9.30102 25.5532C9.34356 25.5662 9.38863 25.5506 9.4157 25.5156C10.0444 24.6573 10.6049 23.7524 11.0854 22.8007C11.1138 22.745 11.0867 22.6789 11.0287 22.6569C10.1398 22.3198 9.29329 21.9088 8.47903 21.4421C8.41462 21.4045 8.40947 21.3124 8.46872 21.2683C8.64007 21.14 8.81146 21.0064 8.97508 20.8716C9.00468 20.847 9.04593 20.8418 9.08073 20.8573C14.4301 23.2986 20.2213 23.2986 25.5075 20.8573C25.5423 20.8405 25.5836 20.8457 25.6145 20.8703C25.7781 21.0051 25.9495 21.14 26.1221 21.2683C26.1814 21.3124 26.1775 21.4045 26.1131 21.4421C25.2988 21.9178 24.4524 22.3198 23.5621 22.6556C23.5041 22.6776 23.4784 22.745 23.5067 22.8007C23.9976 23.7511 24.558 24.656 25.1751 25.5143C25.2009 25.5506 25.2473 25.5662 25.2898 25.5532C27.9606 24.7273 30.6688 23.4814 33.4646 21.4291C33.4891 21.411 33.5045 21.3837 33.5071 21.3539C34.1886 14.3062 32.3656 8.18423 28.6744 2.75715C28.6653 2.73902 28.6499 2.72604 28.6319 2.71826ZM11.8842 17.6407C10.2737 17.6407 8.94672 16.1628 8.94672 14.3477C8.94672 12.5326 10.248 11.0547 11.8842 11.0547C13.5333 11.0547 14.8475 12.5456 14.8217 14.3477C14.8217 16.1628 13.5205 17.6407 11.8842 17.6407ZM22.7453 17.6407C21.1348 17.6407 19.8078 16.1628 19.8078 14.3477C19.8078 12.5326 21.109 11.0547 22.7453 11.0547C24.3944 11.0547 25.7085 12.5456 25.6828 14.3477C25.6828 16.1628 24.3944 17.6407 22.7453 17.6407Z" fill="#455A64"/>
</svg>
