<svg width="16" height="16" viewBox="0 0 16 16" fill="none" xmlns="http://www.w3.org/2000/svg">
<path d="M13.6571 2.3429C10.5329 -0.780957 5.46746 -0.781304 2.3429 2.3429C-0.781304 5.46711 -0.780957 10.5326 2.3429 13.6571C5.46711 16.7806 10.5326 16.781 13.6571 13.6571C16.781 10.5326 16.7806 5.46746 13.6571 2.3429ZM9.04315 11.4783C9.04315 12.0547 8.57602 12.5218 7.99966 12.5218C7.42331 12.5218 6.95617 12.0547 6.95617 11.4783V7.30435C6.95617 6.728 7.42331 6.26086 7.99966 6.26086C8.57602 6.26086 9.04315 6.728 9.04315 7.30435V11.4783ZM7.98123 5.52068C7.38018 5.52068 6.97948 5.09493 6.992 4.56936C6.97948 4.0184 7.38018 3.60553 7.9934 3.60553C8.60697 3.60553 8.99515 4.01875 9.00802 4.56936C9.00767 5.09493 8.60732 5.52068 7.98123 5.52068Z" fill="#046196"/>
</svg>
