<svg width="145" height="144" viewBox="0 0 145 144" fill="none" xmlns="http://www.w3.org/2000/svg">
<g filter="url(#filter0_d_103_4)">
<path d="M4 42.0493L4.0238 84.1225L26.3948 93.9982C38.6988 99.424 48.8134 103.922 48.861 103.993C48.9086 104.064 44.8152 110.966 39.7698 119.342C34.7482 127.719 30.4644 134.882 30.2502 135.286L29.8694 136L30.6786 135.381C31.1308 135.048 39.7936 128.552 49.9319 120.96L68.3761 107.182L80.6326 105.349C108.382 101.209 132.348 97.5916 132.419 97.5202C132.467 97.4488 134.442 79.1965 138.345 42.4777C139.321 33.3158 140.177 25.4866 140.225 25.0821C140.32 24.3919 140.273 24.3206 139.583 24.2016C139.154 24.1302 134.87 23.3687 130.015 22.4882C115.998 19.9657 100.457 17.2052 94.7929 16.182C91.9132 15.6584 84.7498 14.3734 78.8476 13.3263C72.9693 12.2793 65.782 10.9942 62.9024 10.4707C60.0227 9.94715 52.8592 8.66211 46.9571 7.61505C41.0787 6.56798 33.8915 5.28294 31.0118 4.7594C28.1321 4.23587 20.9686 2.97463 15.1141 1.90376C9.25956 0.85669 4.35698 -3.0417e-06 4.21419 -3.0417e-06C4.0952 -3.0417e-06 4 15.825 4 42.0493Z" fill="#FFD140"/>
</g>
<path d="M95.0248 25.7223C93.9876 25.9828 93.231 26.539 92.274 27.7265C90.5554 29.8711 89.0672 33.9547 88.2455 38.7849C88.0451 39.9524 87.8096 41.7111 87.8447 41.7461C87.8697 41.7712 89.6084 42.0067 95.2102 42.7282C97.3798 43.0138 98.5222 43.1792 98.6274 43.2343C98.7176 43.2794 98.9932 43.5149 99.2438 43.7654C99.7849 44.2915 99.9603 44.6272 100.196 45.5291C100.657 47.3029 100.702 49.728 100.316 51.627C100.191 52.2483 99.8951 53.0701 99.6847 53.3807C99.4742 53.6964 98.878 54.2876 98.6575 54.3979C98.5773 54.438 98.2567 54.4931 97.941 54.5282C97.6253 54.5632 96.3977 54.7135 95.2102 54.8639C94.0277 55.0142 92.1538 55.2497 91.0514 55.385C88.7315 55.6706 87.8497 55.7908 87.8296 55.8109C87.8196 55.8159 87.8747 56.2718 87.9449 56.818C88.3307 59.8193 88.9169 62.48 89.6585 64.6545C90.0142 65.6917 90.6406 67.245 90.8711 67.6509C90.9863 67.8513 91.1015 68.0668 91.1266 68.1319C91.1517 68.197 91.317 68.4876 91.4924 68.7783C92.5997 70.5871 93.5868 71.489 94.9096 71.9099C95.3004 72.0351 96.1723 72.0201 96.6132 71.8798C97.6654 71.5541 98.7327 70.6171 99.6596 69.2142C100.326 68.202 101.238 66.2379 101.749 64.7047C102.29 63.0862 102.896 60.6561 103.172 58.9675C104.034 53.7665 104.229 48.2148 103.728 42.9086C103.518 40.6989 103.027 37.6675 102.596 35.8938C101.363 30.8581 99.4993 27.3507 97.3999 26.1181C96.6583 25.6822 95.7664 25.5319 95.0248 25.7223Z" fill="#2E434D"/>
<path d="M88.957 31.9354C88.8819 32.0706 88.6814 32.3713 88.5111 32.5968C86.7724 34.9467 84.4625 36.475 81.5313 37.2165C80.5192 37.4721 79.5221 37.5823 77.2723 37.6975C75.9195 37.7627 73.7399 37.9431 70.2575 38.2738C63.393 38.9301 55.6567 39.9373 49.664 40.9544C46.2418 41.5356 42.0329 42.3724 41.7322 42.5277C41.3715 42.7181 40.8804 43.3846 40.6499 44.0059C40.0186 45.6844 39.7581 47.849 39.9184 50.0987C40.0387 51.7623 40.3142 52.9598 40.8253 54.007C41.2512 54.8939 41.5669 55.1644 42.3485 55.3298C44.4981 55.7757 45.1695 55.911 46.332 56.1315C47.0635 56.2718 48.246 56.4872 48.9575 56.6125C49.669 56.7328 50.2603 56.843 50.2703 56.853C50.2803 56.858 50.2552 57.0033 50.2152 57.1637C49.8444 58.7821 48.9324 63.2114 48.4063 65.9572C47.279 71.8697 46.7378 75.5174 46.2969 80.1623C46.1866 81.3197 46.1766 83.0834 46.2768 83.4943C46.357 83.825 46.6025 84.5716 46.7378 84.8822C46.8981 85.253 47.279 85.8042 47.5896 86.1098C48.0606 86.5708 48.4264 86.7161 49.5137 86.8714C50.0097 86.9416 51.3425 87.132 52.4699 87.2973C57.8613 88.084 60.071 88.2694 61.1633 88.0339C62.7466 87.6932 64.0795 86.7612 64.5905 85.6388C64.9062 84.9474 64.9162 84.772 64.7759 82.4922C64.5254 78.5789 64.4903 71.9549 64.6958 67.9114C64.7809 66.2278 64.8912 64.4841 65.0014 63.0762C65.1317 61.3976 65.3572 58.9424 65.3822 58.9124C65.3922 58.9073 66.0085 58.9625 66.7501 59.0426C71.6254 59.5637 75.5437 59.9145 77.4227 59.9946C79.963 60.1049 81.0553 60.2702 82.7088 60.8064C83.1848 60.9617 84.3122 61.4678 84.693 61.6982C84.8734 61.8085 85.0337 61.8987 85.0438 61.8987C85.0989 61.8987 85.7953 62.3797 86.2162 62.7054C86.7624 63.1213 87.6994 64.0482 88.1553 64.6094C88.5111 65.0453 89.0171 65.7919 89.1524 66.0725C89.2025 66.1727 89.2577 66.2579 89.2827 66.2579C89.3078 66.2579 89.2777 66.1627 89.2176 66.0424C89.1023 65.8169 88.2605 63.3167 88.1453 62.8507C87.2334 59.208 86.8075 56.4221 86.5569 52.4036C86.4768 51.0808 86.4768 46.451 86.5569 45.1633C86.7423 42.2922 86.9277 40.7139 87.3236 38.5243C87.6192 36.8958 87.9699 35.3526 88.3507 34.0348C88.5011 33.5137 89.0422 31.9354 89.1224 31.785C89.1524 31.7299 89.1574 31.6848 89.1374 31.6848C89.1174 31.6848 89.0322 31.7951 88.957 31.9354ZM63.3579 58.6719L63.6185 58.7019V58.8823C63.6185 58.9875 63.5634 59.674 63.4932 60.4205C62.8168 67.9314 62.6615 75.3471 63.0222 83.2688C63.0823 84.5666 63.0823 84.5716 62.9721 84.8271C62.912 84.9674 62.7667 85.1729 62.6514 85.2881C62.4159 85.5136 61.5992 86.0247 61.5742 85.9545C61.5692 85.9345 61.6142 85.8042 61.6844 85.6689C62.0151 85.0025 62.0351 84.762 61.9149 82.1665C61.8197 80.017 61.8097 72.2405 61.9049 70.0158C62.0552 66.4483 62.2807 63.1213 62.5663 60.2251C62.6514 59.4034 62.7166 58.6969 62.7166 58.6568C62.7166 58.6017 62.7617 58.5867 62.907 58.6117C63.0072 58.6268 63.2126 58.6518 63.3579 58.6719Z" fill="#2E434D"/>
<path d="M97.6003 44.2714C97.3247 44.4217 97.2596 44.4918 97.0491 44.8827C96.5581 45.7846 96.3226 46.8318 96.2574 48.36C96.1622 50.5346 96.7284 52.8144 97.485 53.3155C98.1063 53.7263 98.7076 53.2002 99.1385 51.8774C99.6145 50.4194 99.6747 47.9091 99.2788 46.2155C99.0734 45.3486 98.6224 44.4868 98.2767 44.3014C98.0462 44.1812 97.8007 44.1712 97.6003 44.2714Z" fill="#2E434D"/>
<defs>
<filter id="filter0_d_103_4" x="0" y="0" width="144.262" height="144" filterUnits="userSpaceOnUse" color-interpolation-filters="sRGB">
<feFlood flood-opacity="0" result="BackgroundImageFix"/>
<feColorMatrix in="SourceAlpha" type="matrix" values="0 0 0 0 0 0 0 0 0 0 0 0 0 0 0 0 0 0 127 0" result="hardAlpha"/>
<feOffset dy="4"/>
<feGaussianBlur stdDeviation="2"/>
<feComposite in2="hardAlpha" operator="out"/>
<feColorMatrix type="matrix" values="0 0 0 0 0 0 0 0 0 0 0 0 0 0 0 0 0 0 0.25 0"/>
<feBlend mode="normal" in2="BackgroundImageFix" result="effect1_dropShadow_103_4"/>
<feBlend mode="normal" in="SourceGraphic" in2="effect1_dropShadow_103_4" result="shape"/>
</filter>
</defs>
</svg>
