<svg width="36" height="36" viewBox="0 0 36 36" fill="none" xmlns="http://www.w3.org/2000/svg">
<circle cx="18" cy="18" r="18" fill="#455A64"/>
<path d="M11.1135 21.49C11.2291 21.3741 11.3881 21.3064 11.5567 21.3064H26.8459C27.1253 21.3064 27.265 21.6445 27.0675 21.8425L24.0472 24.8708C23.9316 24.9867 23.7727 25.0543 23.6041 25.0543H8.31484C8.03545 25.0543 7.89576 24.7162 8.09325 24.5182L11.1135 21.49Z" fill="white"/>
<path d="M11.1128 10.1835C11.2332 10.0676 11.3922 10 11.5559 10H26.8452C27.1245 10 27.2642 10.3381 27.0667 10.5361L24.0465 13.5643C23.9309 13.6802 23.7719 13.7478 23.6033 13.7478H8.31408C8.03469 13.7478 7.895 13.4098 8.09249 13.2117L11.1128 10.1835Z" fill="white"/>
<path d="M24.0472 15.8003C23.9316 15.6844 23.7727 15.6168 23.6041 15.6168H8.31484C8.03545 15.6168 7.89576 15.9549 8.09325 16.1529L11.1135 19.1811C11.2291 19.297 11.3881 19.3647 11.5567 19.3647H26.8459C27.1253 19.3647 27.265 19.0266 27.0675 18.8286L24.0472 15.8003Z" fill="white"/>
</svg>
