<svg width="39" height="39" viewBox="0 0 39 39" fill="none" xmlns="http://www.w3.org/2000/svg">
<circle cx="19.5" cy="19.5" r="19.5" fill="#00A57D"/>
<path d="M12.494 24.1889C12.6258 24.0567 12.807 23.9797 12.9991 23.9797H30.4269C30.7454 23.9797 30.9046 24.365 30.6795 24.5907L27.2368 28.0425C27.105 28.1747 26.9238 28.2517 26.7316 28.2517H9.30383C8.98536 28.2517 8.82613 27.8664 9.05125 27.6407L12.494 24.1889Z" fill="white"/>
<path d="M12.4931 11.3009C12.6304 11.1688 12.8116 11.0917 12.9983 11.0917H30.4261C30.7445 11.0917 30.9038 11.4771 30.6787 11.7028L27.2359 15.1546C27.1041 15.2867 26.9229 15.3638 26.7308 15.3638H9.30296C8.9845 15.3638 8.82526 14.9784 9.05039 14.7527L12.4931 11.3009Z" fill="white"/>
<path d="M27.2368 17.7034C27.105 17.5713 26.9238 17.4942 26.7316 17.4942H9.30383C8.98536 17.4942 8.82613 17.8796 9.05125 18.1053L12.494 21.5571C12.6258 21.6892 12.807 21.7663 12.9991 21.7663H30.4269C30.7454 21.7663 30.9046 21.3809 30.6795 21.1552L27.2368 17.7034Z" fill="white"/>
</svg>
